<?xml version="1.0" encoding="UTF-8" standalone="no"?>
<!-- Generator: Adobe Illustrator 16.0.0, SVG Export Plug-In . SVG Version: 6.00 Build 0)  -->

<svg
   version="1.1"
   id="Layer_1"
   x="0px"
   y="0px"
   width="74px"
   height="56px"
   viewBox="0 0 74 56"
   enable-background="new 0 0 74 56"
   xml:space="preserve"
   sodipodi:docname="exampleIcon.svg"
   inkscape:version="1.1.2 (0a00cf5339, 2022-02-04)"
   inkscape:export-xdpi="96"
   inkscape:export-ydpi="96"
   xmlns:inkscape="http://www.inkscape.org/namespaces/inkscape"
   xmlns:sodipodi="http://sodipodi.sourceforge.net/DTD/sodipodi-0.dtd"
   xmlns="http://www.w3.org/2000/svg"
   xmlns:svg="http://www.w3.org/2000/svg"><defs
   id="defs7" /><sodipodi:namedview
   id="namedview7"
   pagecolor="#ffffff"
   bordercolor="#000000"
   borderopacity="0.25"
   inkscape:showpageshadow="2"
   inkscape:pageopacity="0.0"
   inkscape:pagecheckerboard="0"
   inkscape:deskcolor="#d1d1d1"
   inkscape:zoom="2"
   inkscape:cx="-147"
   inkscape:cy="27.75"
   inkscape:window-width="1920"
   inkscape:window-height="1016"
   inkscape:window-x="0"
   inkscape:window-y="0"
   inkscape:window-maximized="1"
   inkscape:current-layer="Layer_1"
   inkscape:pageshadow="2"
   showgrid="false" />









<path
   style="fill:#fc4a20;fill-opacity:1;stroke-width:2.89134"
   d="m 25.439566,46.719644 c -3.092325,-0.512219 -4.37337,-3.01423 -3.62263,-7.075359 0.640318,-3.4638 2.633313,-7.1828 5.25323,-9.802717 2.973804,-2.973804 5.236697,-4.052694 8.953181,-4.268648 2.518489,-0.146342 3.261435,-0.01654 5.400853,0.94357 4.693758,2.106433 8.967283,7.868318 9.835809,13.261374 1.021688,6.344104 -2.003792,8.052413 -11.307277,6.384548 -2.900697,-0.520018 -3.869061,-0.526799 -6.949534,-0.04867 -5.412476,0.840093 -5.909436,0.879903 -7.563632,0.605898 z"
   id="path6050"
   inkscape:export-filename="/home/pablo/code/jaspKinematics/inst/icons/exampleIcon.png"
   inkscape:export-xdpi="96"
   inkscape:export-ydpi="96" /><path
   style="fill:#fc4a20;fill-opacity:1;stroke-width:2.89134"
   d="m 40.823886,23.482634 c -2.927169,-1.784931 -4.076443,-8.182176 -2.09306,-11.650672 1.815131,-3.1742608 4.489227,-4.1934519 6.84061,-2.6071937 2.187169,1.4754787 3.372568,3.9613037 3.372568,7.0723997 0,5.961423 -4.131684,9.617537 -8.120118,7.185466 z"
   id="path6089"
   inkscape:export-filename="/home/pablo/code/jaspKinematics/inst/icons/exampleIcon.png"
   inkscape:export-xdpi="96"
   inkscape:export-ydpi="96" /><path
   style="fill:#fc4a20;fill-opacity:1;stroke-width:2.89134"
   d="m 51.654925,31.823275 c -1.587718,-0.862831 -2.553709,-3.194409 -2.247884,-5.425641 0.665602,-4.856095 5.191173,-7.479803 8.020865,-4.65011 2.787819,2.787819 1.476937,8.546245 -2.305268,10.126551 -1.65984,0.693526 -2.110199,0.686928 -3.467713,-0.0508 z"
   id="path6128"
   inkscape:export-filename="/home/pablo/code/jaspKinematics/inst/icons/exampleIcon.png"
   inkscape:export-xdpi="96"
   inkscape:export-ydpi="96" /><path
   style="fill:#fc4a20;fill-opacity:1;stroke-width:2.89134"
   d="m 27.333614,23.482634 c -3.893808,-2.37437 -4.365861,-10.317695 -0.799254,-13.449216 1.80938,-1.5886573 2.789123,-1.8786897 4.471119,-1.3235813 2.725345,0.8994452 4.365669,3.8150013 4.314954,7.6695173 -0.07907,6.009273 -4.025289,9.518945 -7.986819,7.10328 z"
   id="path6167"
   inkscape:export-filename="/home/pablo/code/jaspKinematics/inst/icons/exampleIcon.png"
   inkscape:export-xdpi="96"
   inkscape:export-ydpi="96" /><path
   style="fill:#fc4a20;fill-opacity:1;stroke-width:2.89134"
   d="M 17.977698,31.864389 C 16.44077,31.185973 15.526901,30.169936 14.72292,28.24574 c -2.17444,-5.204169 2.372666,-9.900467 6.347555,-6.555818 1.497224,1.25983 2.812523,3.855287 2.825789,5.576077 0.01325,1.718969 -1.167065,3.898314 -2.478622,4.576546 -1.391446,0.719545 -1.852691,0.722474 -3.439944,0.02184 z"
   id="path6206"
   inkscape:export-filename="/home/pablo/code/jaspKinematics/inst/icons/exampleIcon.png"
   inkscape:export-xdpi="96"
   inkscape:export-ydpi="96" /></svg>
